<svg xmlns="http://www.w3.org/2000/svg" width="32" height="32" viewBox="0 0 32 32">
  <path fill="#D04200" d="M30 0h-28c-1.1 0-2 .9-2 2v28c0 1.1.9 2 2 2h28c1.1 0 2-.9 2-2v-28c0-1.1-.9-2-2-2z" />
  <path fill="#fff" d="M18.1 27.2c0-.6.2-1.2.4-1.8-.6.5-.8 1.1-1 1.9.1-.9.5-6.9.5-7.2 1.5-4.4.8-17.4 2.8-19.1-2.2.4-3 2.7-3.7 4.5-.7-2.1-.1-3.5-2.5-4.3 1.9 1.6 1.5 3 1.9 5.2-1.1-1.5-.8-3.3-2.1-4.8-.4-.4-1.6-1.3-1.6-1.3 0 .1 1 2 1.2 3.1.2 1 .6 3.1.6 3.9.2 4.2 1.2 8.3 2 12.5.1.7.5 2.8.5 2.8l.1.9c-.1-.6-.3-1.1-.3-1.3-.2-.6-.7-2.2-.9-2.9-1.8-3.7-5-10.8-9.4-11.9 2.5 2.2 5.1 5.1 5.7 7.9-1.3-1.9-6.5-5.8-8.7-7.3 4 4.1 7.2 8.4 10.7 13 1 1.3 2.3 4 2.4 4.6.1.4.1 2.1.2 3.1-1.9-4.7-3-7.1-6.6-9.2-.6-.3-2.5-1-2.5-1 .9 1 1.9 1 2.7 2.3-1.6-1.1-3.3-1.3-5.2-1.3 6 3.1 9.2 4 11.2 9.9.2 1-.1 1.6-.1 2.6h1.3v-1.4c.1-.4.1-1.7.3-2 .6-1.6 1.6-2.3 3.1-3.3-1.4.5-2 .3-3 1.9zm5.9-14c-.5.5-2 2.3-2 2.3.1-2.6.7-5.4 2.4-7.4-2.3 1.5-3.6 5.3-4.3 7.6-.2.9-3 6.3-1.7 9.2.2-1.1.8-2.1 1.5-3 .3-.4 1.6-2.5 2.9-5.4 1.1-2.9 3-4.7 5.6-6.1-1.9.3-3 1.4-4.4 2.8z" />
</svg>